<?xml version="1.0" encoding="utf-8"?>
<!-- Generator: Adobe Illustrator 19.0.0, SVG Export Plug-In . SVG Version: 6.00 Build 0)  -->
<svg version="1.1" id="图层_1" xmlns="http://www.w3.org/2000/svg" xmlns:xlink="http://www.w3.org/1999/xlink" x="0px" y="0px"
	 viewBox="165 175 220 220" enable-background="new 0 0 512 512" xml:space="preserve" width="140" height="64">
<path fill="#ffffff" d="M410.4,234.5c-5.7,0-11,2.1-15,5.6v-5.4h-8V288h8v-30.5c0-8.3,6.8-15,15-15c8.3,0,15,6.8,15,15V288h8v-30.5
	C433.5,244.8,423.2,234.5,410.4,234.5z M447.5,276c-3.3,0-6,2.7-6,6s2.7,6,6,6s6-2.7,6-6S450.8,276,447.5,276z M185.2,296l-0.4-0.4
	c-2.9-3-6.1-5.7-9.5-8l-19.6-14.2c-1.6-1.2-3.8-1-5.2,0.4l-11.3,11.3c-1.4,1.4-1.6,3.6-0.4,5.2l14.2,19.5c2.4,3.4,5.1,6.6,8,9.5
	l0.4,0.4c0.1,0.1,0.1,0.1,0.2,0.2c3.1,2.6,6.9,4.1,11,4.1c4.5,0,8.7-1.7,11.9-4.9c6.2-6.2,6.6-16.2,0.8-22.8
	C185.3,296.2,185.3,296.1,185.2,296z M178.9,313.4c-1.7,1.7-3.9,2.6-6.2,2.6c-2.1,0-4.1-0.7-5.6-2.1l-0.3-0.3
	c-2.6-2.6-5-5.4-7.1-8.5l-12.2-16.8l6.5-6.5l16.9,12.3c3,2.1,5.8,4.5,8.4,7.1l0.3,0.3C182.3,305,182.1,310.2,178.9,313.4z
	 M193.5,254.5h-4c0-1.2-0.1-2.3-0.2-3.5c-2.5-34.4-30.4-61.4-64.8-62.9c-0.5,0-1,0-1.5,0v-4c0-0.8-0.7-1.5-1.5-1.5s-1.5,0.7-1.5,1.5
	v4c-17.4,0.4-34.2,7.5-46.6,19.9c-12.4,12.4-19.5,29.2-19.9,46.6h-4c-0.8,0-1.5,0.7-1.5,1.5s0.7,1.5,1.5,1.5h4c0,0.5,0,1,0,1.5
	c1.5,34.5,28.5,62.3,62.9,64.8c1.2,0.1,2.4,0.1,3.5,0.2v4c0,0.8,0.7,1.5,1.5,1.5s1.5-0.7,1.5-1.5v-4c8.1-0.2,16.1-1.8,23.7-4.8
	c1.1-0.5,2-1.4,2.4-2.6c0.3-1.2,0.1-2.5-0.6-3.5l-10.9-15c-0.1-0.2-0.3-0.3-0.4-0.5l-1.5-1.5c-3.3-3.3-7.7-5.3-12.6-5.6V279l9.7,4.8
	c0.6,0.3,1.2,0.4,1.8,0.4c1,0,2.1-0.4,2.8-1.2l11.3-11.3c1.2-1.2,1.5-3.1,0.7-4.6l-4.8-9.7H156c0.3,4.8,2.3,9.2,5.6,12.6l1.5,1.5
	c0.1,0.1,0.3,0.3,0.5,0.4l15,10.9c1,0.7,2.3,1,3.5,0.6c1.2-0.3,2.1-1.2,2.6-2.4c3-7.6,4.6-15.5,4.8-23.7h4c0.8,0,1.5-0.7,1.5-1.5
	S194.3,254.5,193.5,254.5z M120,316c-1,0-2-0.1-2.9-0.1c-30.3-2.2-54.2-26.8-55.5-57.2c0-0.4,0-0.8,0-1.1h17.6
	c0.3,10.2,4.3,19.7,11.3,27.3c7.7,8.3,18.3,13.1,29.6,13.5V316z M120,290.4c-9-0.4-17.6-4.3-23.7-11c-5.6-6.1-8.8-13.7-9.1-21.9
	h27.6l4.5,18.1c0.1,0.5,0.4,1,0.7,1.5V290.4z M120,248.5l-1.5-0.4c-1.4-0.3-2.8,0.1-3.8,1.1c-1,1-1.4,2.4-1.1,3.8l0.4,1.5H87.1
	c0-0.4,0-0.8,0.1-1.1c1.3-16.8,14.9-30.4,31.7-31.7c0.4,0,0.8,0,1.1-0.1V248.5z M120,213.6c-0.6,0-1.2,0-1.7,0.1
	c-20.7,1.6-37.5,18.3-39,39c0,0.6-0.1,1.2-0.1,1.7H61.5c0.4-15.3,6.7-30,17.6-40.9C90,202.7,104.7,196.4,120,196V213.6z
	 M129.9,301.7l1.3,1.3l7.6,10.4c-5.1,1.6-10.4,2.4-15.8,2.5v-17.5C125.7,298.8,128.1,299.9,129.9,301.7z M138.7,270.4l-3.2-3.2
	c0.1-0.3,0.1-0.7,0.1-1c0-2.2-1.8-4-4-4c-2.2,0-4,1.8-4,4c0,2.2,1.8,4,4,4c0.4,0,0.7-0.1,1-0.1l3.2,3.2l-2.2,2.2l-7.1-3.5l-3.6-14.4
	l14.4,3.6l3.5,7.1L138.7,270.4z M142.6,254.5c-0.4-0.3-0.9-0.6-1.5-0.7l-18.1-4.5v-27.6c8.2,0.3,15.8,3.5,21.9,9.1
	c6.6,6.1,10.6,14.7,11,23.7H142.6z M178.9,273.3l-10.4-7.6l-1.3-1.3c-1.8-1.8-3-4.2-3.3-6.9h17.5
	C181.3,262.9,180.5,268.1,178.9,273.3z M163.9,254.5c-0.4-11.2-5.3-21.9-13.5-29.6c-7.6-7-17.1-11-27.3-11.3V196c0.4,0,0.8,0,1.1,0
	c30.4,1.3,55,25.2,57.2,55.5c0.1,1,0.1,2,0.1,2.9H163.9z M353.3,234.5c-14.8,0-26.9,12-26.9,26.9s12,26.9,26.9,26.9
	s26.9-12,26.9-26.9S368.1,234.5,353.3,234.5z M353.3,280.2c-10.4,0-18.9-8.5-18.9-18.9c0-10.4,8.5-18.9,18.9-18.9
	c10.4,0,18.9,8.5,18.9,18.9C372.2,271.7,363.7,280.2,353.3,280.2z M257.2,212l-24.4,30.7L209.5,212h-10l29.2,38.6V288h8v-37.3
	l30.7-38.7H257.2z M294.3,274.7c-7.4-7.4-7.4-19.3,0-26.7c7.4-7.4,19.3-7.4,26.7,0l5.7-5.7c-10.5-10.5-27.5-10.5-38,0
	c-10.5,10.5-10.5,27.5,0,38c5.2,5.2,12.1,7.9,19,7.9s13.8-2.6,19-7.9l-5.7-5.7C313.6,282,301.6,282,294.3,274.7z M265.5,288h8v-36
	h-8V288z M265.5,243.3h8v-8.8h-8V243.3z"/>
</svg>
